<svg xmlns="http://www.w3.org/2000/svg" viewBox="0 0 256 256"><defs><style>.cls-1{fill:#1d384d}</style></defs><g id="icons_without_caption" data-name="icons without caption"><g id="EDUCATION_SAVINGS" data-name="EDUCATION SAVINGS"><path class="cls-1" d="M180.69 119.44v28a21.89 21.89 0 0 1 4-1.35v-26.65zM128 98.5c-32.31 0-56.68 9-56.68 20.94h4c0-8 21.64-16.94 52.68-16.94s52.68 8.93 52.68 16.94h4c0-11.94-24.37-20.94-56.68-20.94zM128 143.9c-14.82 0-28.79 2-39.32 5.66-5.91 2-10.42 4.52-13.36 7.29v-37.41h-4v45.39c0 11.94 24.37 20.94 56.68 20.94 14.39 0 27.19-1.78 37-4.82 1.33-.41 2.6-.84 3.81-1.3a22.19 22.19 0 0 1-1.46-3.84c-1.19.45-2.45.88-3.79 1.29-9.09 2.8-21.33 4.67-35.54 4.67-31.05 0-52.68-8.93-52.68-16.94 0-8 21.64-16.93 52.68-16.93 16.19 0 29.83 2.43 39.16 5.9 1.36.5 2.62 1 3.79 1.56a22.31 22.31 0 0 1 2.78-3.2q-1.82-.91-3.9-1.74c-10.23-4.06-24.95-6.52-41.85-6.52z"/><path class="cls-1" d="M128 58.82 8.84 110.47l63.73 25.82 1.5-3.71-54.89-22.24L128 63.18l108.81 47.16-54.88 22.24 1.5 3.71 63.73-25.82L128 58.82z"/><path class="cls-1" d="M49.62 153v-.37a6.35 6.35 0 0 0-4.35-6V97.71h-4v48.87a6.35 6.35 0 0 0-4.35 6v.12a9.66 9.66 0 0 0-3.66 7.57v12.17h4v-12.15a5.65 5.65 0 0 1 1.22-3.51 6.35 6.35 0 0 0 2.78 1.85v6.21h4v-6.21a6.34 6.34 0 0 0 2.6-1.66 5.65 5.65 0 0 1 1.14 3.32v12.17h4v-12.17a9.65 9.65 0 0 0-3.38-7.29zM190.27 141.46a27.79 27.79 0 0 0-5.58.56 27.58 27.58 0 0 0-14.86 8.4 26.45 26.45 0 0 0-2.67 3.38 27.74 27.74 0 0 0-3.62 23.31A24.72 24.72 0 0 0 165 181a27.85 27.85 0 1 0 25.29-39.5zm0 51.72a23.84 23.84 0 0 1-21.48-13.52 22.19 22.19 0 0 1-1.46-3.84 23.31 23.31 0 0 1-.91-6.5 23.69 23.69 0 0 1 4.53-14 22.31 22.31 0 0 1 2.78-3.2 23.6 23.6 0 0 1 7-4.68 21.89 21.89 0 0 1 4-1.35 23.36 23.36 0 0 1 5.58-.67 23.86 23.86 0 1 1 0 47.72z"/><path class="cls-1" d="M190.86 167.6c-3-1-5.25-1.83-5.25-4.1s1.78-3.33 4.33-3.33a11.28 11.28 0 0 1 6.13 2.15l1.83-2.26a14.87 14.87 0 0 0-6.2-2.65v-4.77h-2.44v4.61a8.05 8.05 0 0 0-4.57 1.5 5.78 5.78 0 0 0-1.32 1.39 6.25 6.25 0 0 0-1 3.55 7 7 0 0 0 .09 1.15 5.06 5.06 0 0 0 1.71 3c1.43 1.27 3.57 2 5.81 2.7 3.37 1.05 5.46 1.92 5.46 4.53 0 2.3-2 3.63-4.67 3.63a10.37 10.37 0 0 1-7-3l-1.9 2.28a12.68 12.68 0 0 0 7.45 3.57V186h2.44v-4.41c4.42-.36 7-3 7-6.69-.02-4.68-3.42-5.9-7.9-7.3z"/></g></g></svg>